<?xml version="1.0" encoding="UTF-8" standalone="no"?>
<!DOCTYPE svg PUBLIC "-//W3C//DTD SVG 1.1//EN"
 "http://www.w3.org/Graphics/SVG/1.1/DTD/svg11.dtd">
<!-- Generated by graphviz version 2.44.0 (20200408.0750)
 -->
<!-- Title: G Pages: 1 -->
<svg width="15pt" height="303pt"
 viewBox="0.00 0.00 15.00 303.00" xmlns="http://www.w3.org/2000/svg" xmlns:xlink="http://www.w3.org/1999/xlink">
<g id="graph0" class="graph" transform="scale(1 1) rotate(0) translate(4 299)">
<title>G</title>
<polygon fill="white" stroke="transparent" points="-4,4 -4,-299 11,-299 11,4 -4,4"/>
<!-- 0 -->
<g id="node1" class="node">
<title>0</title>
<ellipse fill="gray" stroke="black" cx="3.5" cy="-3.5" rx="3.5" ry="3.5"/>
</g>
<!-- 1 -->
<g id="node2" class="node">
<title>1</title>
<ellipse fill="gray" stroke="black" cx="3.5" cy="-75.5" rx="3.5" ry="3.5"/>
</g>
<!-- 0&#45;&gt;1 -->
<g id="edge1" class="edge">
<title>0&#45;&gt;1</title>
<path fill="none" stroke="black" d="M3.5,-7.37C3.5,-17.43 3.5,-44.76 3.5,-61.59"/>
<polygon fill="black" stroke="black" points="-0,-61.95 3.5,-71.95 7,-61.95 -0,-61.95"/>
</g>
<!-- 2 -->
<g id="node3" class="node">
<title>2</title>
<ellipse fill="gray" stroke="black" cx="3.5" cy="-147.5" rx="3.5" ry="3.5"/>
</g>
<!-- 1&#45;&gt;2 -->
<g id="edge2" class="edge">
<title>1&#45;&gt;2</title>
<path fill="none" stroke="black" d="M3.5,-79.37C3.5,-89.43 3.5,-116.76 3.5,-133.59"/>
<polygon fill="black" stroke="black" points="-0,-133.95 3.5,-143.95 7,-133.95 -0,-133.95"/>
</g>
<!-- 3 -->
<g id="node4" class="node">
<title>3</title>
<ellipse fill="gray" stroke="black" cx="3.5" cy="-219.5" rx="3.5" ry="3.5"/>
</g>
<!-- 2&#45;&gt;3 -->
<g id="edge3" class="edge">
<title>2&#45;&gt;3</title>
<path fill="none" stroke="black" d="M3.5,-151.37C3.5,-161.43 3.5,-188.76 3.5,-205.59"/>
<polygon fill="black" stroke="black" points="-0,-205.95 3.5,-215.95 7,-205.95 -0,-205.95"/>
</g>
<!-- 4 -->
<g id="node5" class="node">
<title>4</title>
<ellipse fill="gray" stroke="black" cx="3.5" cy="-291.5" rx="3.5" ry="3.5"/>
</g>
<!-- 3&#45;&gt;4 -->
<g id="edge4" class="edge">
<title>3&#45;&gt;4</title>
<path fill="none" stroke="black" d="M3.5,-223.37C3.5,-233.43 3.5,-260.76 3.5,-277.59"/>
<polygon fill="black" stroke="black" points="-0,-277.95 3.5,-287.95 7,-277.95 -0,-277.95"/>
</g>
</g>
</svg>
