<?xml version="1.0" encoding="UTF-8" standalone="no"?>
<!DOCTYPE svg PUBLIC "-//W3C//DTD SVG 1.1//EN"
 "http://www.w3.org/Graphics/SVG/1.1/DTD/svg11.dtd">
<!-- Generated by graphviz version 2.44.0 (20200408.0750)
 -->
<!-- Title: G Pages: 1 -->
<svg width="419pt" height="426pt"
 viewBox="0.00 0.00 419.50 425.86" xmlns="http://www.w3.org/2000/svg" xmlns:xlink="http://www.w3.org/1999/xlink">
<g id="graph0" class="graph" transform="scale(1 1) rotate(0) translate(4 421.86)">
<title>G</title>
<polygon fill="white" stroke="transparent" points="-4,4 -4,-421.86 415.5,-421.86 415.5,4 -4,4"/>
<!-- 0 -->
<g id="node1" class="node">
<title>0</title>
<ellipse fill="gray" stroke="black" cx="247" cy="-3.5" rx="3.5" ry="3.5"/>
</g>
<!-- 4 -->
<g id="node5" class="node">
<title>4</title>
<ellipse fill="gray" stroke="black" cx="269.25" cy="-71.98" rx="3.5" ry="3.5"/>
</g>
<!-- 0&#45;&gt;4 -->
<g id="edge1" class="edge">
<title>0&#45;&gt;4</title>
<path fill="none" stroke="black" d="M248.2,-7.18C251.31,-16.74 259.75,-42.74 264.95,-58.75"/>
<polygon fill="black" stroke="black" points="261.74,-60.17 268.16,-68.6 268.39,-58.01 261.74,-60.17"/>
</g>
<!-- 1 -->
<g id="node2" class="node">
<title>1</title>
<ellipse fill="gray" stroke="black" cx="408" cy="-55.81" rx="3.5" ry="3.5"/>
</g>
<!-- 5 -->
<g id="node6" class="node">
<title>5</title>
<ellipse fill="gray" stroke="black" cx="349.75" cy="-98.13" rx="3.5" ry="3.5"/>
</g>
<!-- 1&#45;&gt;5 -->
<g id="edge2" class="edge">
<title>1&#45;&gt;5</title>
<path fill="none" stroke="black" d="M404.87,-58.09C396.73,-64 374.62,-80.06 361,-89.96"/>
<polygon fill="black" stroke="black" points="358.65,-87.34 352.62,-96.05 362.77,-93 358.65,-87.34"/>
</g>
<!-- 2 -->
<g id="node3" class="node">
<title>2</title>
<ellipse fill="gray" stroke="black" cx="202.5" cy="-414.36" rx="3.5" ry="3.5"/>
</g>
<!-- 6 -->
<g id="node7" class="node">
<title>6</title>
<ellipse fill="gray" stroke="black" cx="224.75" cy="-345.88" rx="3.5" ry="3.5"/>
</g>
<!-- 2&#45;&gt;6 -->
<g id="edge3" class="edge">
<title>2&#45;&gt;6</title>
<path fill="none" stroke="black" d="M203.7,-410.67C206.81,-401.11 215.25,-375.12 220.45,-359.11"/>
<polygon fill="black" stroke="black" points="223.9,-359.84 223.66,-349.25 217.24,-357.68 223.9,-359.84"/>
</g>
<!-- 3 -->
<g id="node4" class="node">
<title>3</title>
<ellipse fill="gray" stroke="black" cx="3.5" cy="-140.45" rx="3.5" ry="3.5"/>
</g>
<!-- 7 -->
<g id="node8" class="node">
<title>7</title>
<ellipse fill="gray" stroke="black" cx="75.5" cy="-140.45" rx="3.5" ry="3.5"/>
</g>
<!-- 3&#45;&gt;7 -->
<g id="edge4" class="edge">
<title>3&#45;&gt;7</title>
<path fill="none" stroke="black" d="M7.37,-140.45C17.43,-140.45 44.76,-140.45 61.59,-140.45"/>
<polygon fill="black" stroke="black" points="61.95,-143.95 71.95,-140.45 61.95,-136.95 61.95,-143.95"/>
</g>
<!-- 8 -->
<g id="node9" class="node">
<title>8</title>
<ellipse fill="gray" stroke="black" cx="291.5" cy="-140.45" rx="3.5" ry="3.5"/>
</g>
<!-- 4&#45;&gt;8 -->
<g id="edge5" class="edge">
<title>4&#45;&gt;8</title>
<path fill="none" stroke="black" d="M270.45,-75.66C273.55,-85.22 282,-111.22 287.2,-127.22"/>
<polygon fill="black" stroke="black" points="283.99,-128.65 290.4,-137.08 290.64,-126.49 283.99,-128.65"/>
</g>
<!-- 5&#45;&gt;8 -->
<g id="edge6" class="edge">
<title>5&#45;&gt;8</title>
<path fill="none" stroke="black" d="M346.62,-100.41C338.48,-106.32 316.37,-122.38 302.75,-132.28"/>
<polygon fill="black" stroke="black" points="300.4,-129.66 294.37,-138.37 304.52,-135.32 300.4,-129.66"/>
</g>
<!-- 9 -->
<g id="node10" class="node">
<title>9</title>
<ellipse fill="gray" stroke="black" cx="175" cy="-225.09" rx="3.5" ry="3.5"/>
</g>
<!-- 6&#45;&gt;9 -->
<g id="edge7" class="edge">
<title>6&#45;&gt;9</title>
<path fill="none" stroke="black" d="M223.32,-342.4C216.99,-327.03 191.4,-264.9 180.24,-237.82"/>
<polygon fill="black" stroke="black" points="183.39,-236.28 176.35,-228.36 176.92,-238.94 183.39,-236.28"/>
</g>
<!-- 7&#45;&gt;9 -->
<g id="edge8" class="edge">
<title>7&#45;&gt;9</title>
<path fill="none" stroke="black" d="M78.37,-142.89C91.03,-153.66 142.21,-197.2 164.52,-216.18"/>
<polygon fill="black" stroke="black" points="162.42,-218.99 172.31,-222.8 166.96,-213.66 162.42,-218.99"/>
</g>
<!-- 10 -->
<g id="node11" class="node">
<title>10</title>
<ellipse fill="gray" stroke="black" cx="269.25" cy="-208.93" rx="3.5" ry="3.5"/>
</g>
<!-- 8&#45;&gt;10 -->
<g id="edge9" class="edge">
<title>8&#45;&gt;10</title>
<path fill="none" stroke="black" d="M290.3,-144.13C287.2,-153.7 278.75,-179.69 273.55,-195.7"/>
<polygon fill="black" stroke="black" points="270.11,-194.96 270.35,-205.56 276.77,-197.13 270.11,-194.96"/>
</g>
<!-- 9&#45;&gt;10 -->
<g id="edge10" class="edge">
<title>9&#45;&gt;10</title>
<path fill="none" stroke="black" d="M178.58,-224.48C191.12,-222.33 233.49,-215.06 255.58,-211.27"/>
<polygon fill="black" stroke="black" points="256.4,-214.68 265.67,-209.54 255.22,-207.78 256.4,-214.68"/>
</g>
<!-- 11 -->
<g id="node12" class="node">
<title>11</title>
<ellipse fill="gray" stroke="black" cx="408" cy="-225.09" rx="3.5" ry="3.5"/>
</g>
<!-- 10&#45;&gt;11 -->
<g id="edge11" class="edge">
<title>10&#45;&gt;11</title>
<path fill="none" stroke="black" d="M272.96,-209.36C290.31,-211.38 363.85,-219.95 394.5,-223.52"/>
<polygon fill="black" stroke="black" points="394.13,-227 404.47,-224.68 394.94,-220.05 394.13,-227"/>
</g>
</g>
</svg>
